SplineFontDB: 3.0
FontName: customicons
FullName: customicons
FamilyName: customicons
Weight: Regular
ItalicAngle: 0
UnderlinePosition: 0
UnderlineWidth: 0
Ascent: 850
Descent: 150
InvalidEm: 0
LayerCount: 2
Layer: 0 1 "Back" 1
Layer: 1 1 "Fore" 0
XUID: [1021 35 -1633341006 14806818]
OS2Version: 0
OS2_WeightWidthSlopeOnly: 0
OS2_UseTypoMetrics: 0
CreationTime: 1507520624
ModificationTime: 1508582211
PfmFamily: 17
TTFWeight: 400
TTFWidth: 5
LineGap: 90
VLineGap: 90
Panose: 2 0 5 3 0 0 0 0 0 0
OS2TypoAscent: 0
OS2TypoAOffset: 1
OS2TypoDescent: 0
OS2TypoDOffset: 1
OS2TypoLinegap: 90
OS2WinAscent: 0
OS2WinAOffset: 1
OS2WinDescent: 0
OS2WinDOffset: 1
HheadAscent: 0
HheadAOffset: 1
HheadDescent: 0
HheadDOffset: 1
OS2Vendor: 'PfEd'
DEI: 91125
Encoding: Original
UnicodeInterp: none
NameList: AGL For New Fonts
DisplaySize: -48
AntiAlias: 1
FitToEm: 0
WinInfo: 0 27 10
BeginChars: 22 22

StartChar: play
Encoding: 1 59392 1
Width: 785
Flags: W
LayerCount: 2
Fore
SplineSet
0 -81 m 5,0,-1
 0 781 l 5,1,2
 785 350 l 0,3,-1
 0 -81 l 5,0,-1
EndSplineSet
Validated: 1
EndChar

StartChar: mail
Encoding: 2 59393 2
Width: 1000
Flags: W
LayerCount: 2
Fore
SplineSet
929 11 m 2,0,-1
 929 439 l 1,1,2
 911 419 911 419 890 403 c 0,3,4
 741 288 741 288 652 214 c 0,5,6
 624 190 624 190 606 177 c 0,7,8
 588 164 588 164 558 149 c 0,9,10
 528 134 528 134 501 136 c 2,11,-1
 499 136 l 2,12,13
 473 136 473 136 442 149 c 0,14,15
 411 162 411 162 394 177 c 0,16,17
 377 192 377 192 348 214 c 0,18,19
 260 288 260 288 110 403 c 0,20,21
 89 419 89 419 71 439 c 1,22,-1
 71 11 l 2,23,24
 71 4 71 4 77 -2 c 0,25,26
 83 -8 83 -8 89 -7 c 2,27,-1
 911 -7 l 2,28,29
 918 -7 918 -7 923 -2 c 0,30,31
 928 3 928 3 929 11 c 2,0,-1
929 597 m 2,32,-1
 929 611 l 1,33,-1
 928 618 l 1,34,-1
 927 625 l 1,35,-1
 924 630 l 1,36,-1
 919 634 l 1,37,-1
 911 636 l 1,38,-1
 89 636 l 2,39,40
 82 636 82 636 77 630 c 0,41,42
 72 624 72 624 71 618 c 0,43,44
 71 524 71 524 154 459 c 0,45,46
 261 375 261 375 377 283 c 0,47,48
 381 280 381 280 397 266 c 0,49,50
 413 252 413 252 422 245 c 0,51,52
 431 238 431 238 447 228 c 0,53,54
 463 218 463 218 475 212 c 0,55,56
 487 206 487 206 499 207 c 2,57,-1
 501 207 l 2,58,59
 512 207 512 207 525 212 c 0,60,61
 538 217 538 217 553 228 c 0,62,63
 568 239 568 239 578 245 c 0,64,65
 588 251 588 251 603 266 c 0,66,67
 618 281 618 281 623 283 c 0,68,69
 739 375 739 375 847 459 c 0,70,71
 877 483 877 483 903 524 c 0,72,73
 929 565 929 565 929 597 c 2,32,-1
1000 618 m 2,74,-1
 1000 11 l 2,75,76
 1000 -26 1000 -26 974 -52 c 0,77,78
 948 -78 948 -78 911 -79 c 2,79,-1
 89 -79 l 2,80,81
 53 -79 53 -79 26 -52 c 0,82,83
 -1 -25 -1 -25 0 11 c 2,84,-1
 0 618 l 2,85,86
 0 655 0 655 26 681 c 0,87,88
 52 707 52 707 89 707 c 2,89,-1
 911 707 l 2,90,91
 948 707 948 707 974 681 c 0,92,93
 1000 655 1000 655 1000 618 c 2,74,-1
EndSplineSet
Validated: 33
EndChar

StartChar: resize-full
Encoding: 3 59394 3
Width: 928
Flags: W
LayerCount: 2
Fore
SplineSet
784 111 m 1,0,-1
 911 239 l 1,1,-1
 911 -97 l 1,2,-1
 576 -97 l 1,3,-1
 704 33 l 1,4,-1
 576 160 l 1,5,-1
 655 239 l 1,6,-1
 784 111 l 1,0,-1
353 797 m 1,7,-1
 224 670 l 1,8,-1
 352 543 l 1,9,-1
 272 463 l 1,10,-1
 146 591 l 1,11,-1
 18 462 l 1,12,-1
 18 797 l 1,13,-1
 353 797 l 1,7,-1
353 160 m 1,14,-1
 224 33 l 1,15,-1
 353 -97 l 1,16,-1
 18 -97 l 1,17,-1
 18 239 l 1,18,-1
 146 111 l 1,19,-1
 274 239 l 1,20,-1
 353 160 l 1,14,-1
911 797 m 1,21,-1
 911 462 l 1,22,-1
 784 591 l 1,23,-1
 656 463 l 1,24,-1
 577 543 l 1,25,-1
 704 670 l 1,26,-1
 576 797 l 1,27,-1
 911 797 l 1,21,-1
EndSplineSet
Validated: 513
EndChar

StartChar: resize-small
Encoding: 4 59395 4
Width: 928
Flags: W
LayerCount: 2
Fore
SplineSet
704 33 m 1,0,-1
 576 -97 l 1,1,-1
 576 239 l 1,2,-1
 911 239 l 1,3,-1
 784 111 l 1,4,-1
 911 -18 l 1,5,-1
 832 -97 l 1,6,-1
 704 33 l 1,0,-1
18 462 m 1,7,-1
 146 591 l 1,8,-1
 19 717 l 1,9,-1
 98 796 l 1,10,-1
 224 670 l 1,11,-1
 353 797 l 1,12,-1
 353 462 l 1,13,-1
 18 462 l 1,7,-1
18 -18 m 1,14,-1
 146 111 l 1,15,-1
 18 239 l 1,16,-1
 353 239 l 1,17,-1
 353 -97 l 1,18,-1
 224 33 l 1,19,-1
 97 -97 l 1,20,-1
 18 -18 l 1,14,-1
576 462 m 1,21,-1
 576 797 l 1,22,-1
 704 670 l 1,23,-1
 832 796 l 1,24,-1
 910 717 l 1,25,-1
 784 591 l 1,26,-1
 911 462 l 1,27,-1
 576 462 l 1,21,-1
EndSplineSet
Validated: 513
EndChar

StartChar: android-1
Encoding: 5 59396 5
Width: 920
Flags: W
LayerCount: 2
Fore
SplineSet
0 201 m 2,0,-1
 0 470 l 2,1,2
 0 496 0 496 19 515 c 0,3,4
 38 534 38 534 63 533 c 0,5,6
 89 533 89 533 108 515 c 0,7,8
 127 497 127 497 126 470 c 2,9,-1
 126 201 l 2,10,11
 126 175 126 175 108 157 c 0,12,13
 90 139 90 139 63 138 c 0,14,15
 36 137 36 137 19 157 c 0,16,17
 2 177 2 177 0 201 c 2,0,-1
173 101 m 2,18,-1
 173 519 l 1,19,-1
 747 519 l 1,20,-1
 747 101 l 2,21,22
 747 75 747 75 729 57 c 0,23,24
 711 39 711 39 684 38 c 2,25,-1
 236 38 l 2,26,27
 210 38 210 38 192 57 c 0,28,29
 174 76 174 76 173 101 c 2,18,-1
173 566 m 1,30,-1
 747 566 l 1,31,32
 747 681 747 681 662 755 c 0,33,34
 577 829 577 829 460 829 c 0,35,36
 343 829 343 829 258 755 c 0,37,38
 173 681 173 681 173 566 c 1,30,-1
274 882 m 0,39,40
 274 890 274 890 281 890 c 0,41,42
 284 890 284 890 288 888 c 2,43,-1
 337 799 l 1,44,-1
 322 791 l 1,45,46
 274 879 274 879 274 882 c 0,39,40
289 75 m 2,47,48
 289 102 289 102 308 120 c 0,49,50
 327 138 327 138 355 138 c 0,51,52
 380 138 380 138 399 119 c 0,53,54
 418 100 418 100 418 75 c 2,55,-1
 418 -127 l 2,56,57
 418 -155 418 -155 399 -173 c 0,58,59
 380 -191 380 -191 352 -190 c 0,60,61
 326 -190 326 -190 308 -172 c 0,62,63
 290 -154 290 -154 289 -127 c 2,64,-1
 289 75 l 2,47,48
294 695 m 0,65,66
 294 711 294 711 306 723 c 0,67,68
 318 735 318 735 334 734 c 0,69,70
 350 733 350 733 362 723 c 0,71,72
 374 713 374 713 373 695 c 0,73,74
 373 678 373 678 362 667 c 0,75,76
 351 656 351 656 333 655 c 0,77,78
 317 655 317 655 306 667 c 0,79,80
 295 679 295 679 294 695 c 0,65,66
502 75 m 2,81,82
 502 102 502 102 522 120 c 0,83,84
 542 138 542 138 568 138 c 0,85,86
 594 138 594 138 613 120 c 0,87,88
 632 102 632 102 631 75 c 2,89,-1
 631 -127 l 2,90,91
 631 -155 631 -155 612 -173 c 0,92,93
 593 -191 593 -191 565 -190 c 0,94,95
 539 -190 539 -190 521 -172 c 0,96,97
 503 -154 503 -154 502 -127 c 2,98,-1
 502 75 l 2,81,82
547 695 m 0,99,100
 547 711 547 711 559 723 c 0,101,102
 571 735 571 735 587 734 c 0,103,104
 603 733 603 733 615 723 c 0,105,106
 627 713 627 713 626 695 c 0,107,108
 626 678 626 678 614 667 c 0,109,110
 602 656 602 656 586 655 c 0,111,112
 570 654 570 654 559 667 c 0,113,114
 548 680 548 680 547 695 c 0,99,100
583 799 m 2,115,116
 585 802 585 802 597 828 c 0,117,118
 609 854 609 854 621 872 c 0,119,120
 633 890 633 890 639 890 c 0,121,122
 645 890 645 890 646 881 c 2,123,-1
 646 879 l 1,124,-1
 598 790 l 1,125,-1
 583 799 l 2,115,116
794 201 m 2,126,-1
 794 469 l 2,127,128
 794 495 794 495 813 514 c 0,129,130
 832 533 832 533 857 533 c 0,131,132
 882 533 882 533 902 514 c 0,133,134
 922 495 922 495 920 469 c 2,135,-1
 920 201 l 2,136,137
 920 175 920 175 902 157 c 0,138,139
 884 139 884 139 857 138 c 0,140,141
 830 137 830 137 812 157 c 0,142,143
 794 177 794 177 794 201 c 2,126,-1
EndSplineSet
Validated: 549
EndChar

StartChar: bitcoin
Encoding: 6 59397 6
Width: 1001
Flags: W
LayerCount: 2
Fore
SplineSet
16 471 m 0,0,1
 49 603 49 603 141 698 c 0,2,3
 233 793 233 793 362 831 c 0,4,5
 491 869 491 869 622 835 c 0,6,7
 753 801 753 801 849 709 c 0,8,9
 945 617 945 617 982 489 c 0,10,11
 1019 361 1019 361 986 229 c 0,12,13
 953 97 953 97 860 1 c 0,14,15
 767 -95 767 -95 640 -131 c 0,16,17
 513 -167 513 -167 380 -135 c 0,18,19
 247 -103 247 -103 152 -10 c 0,20,21
 57 83 57 83 20 211 c 0,22,23
 -17 339 -17 339 16 471 c 0,0,1
244 200 m 1,24,-1
 316 182 l 2,25,26
 323 181 323 181 336 177 c 0,27,28
 349 173 349 173 355 172 c 1,29,-1
 332 81 l 1,30,-1
 387 67 l 1,31,-1
 409 157 l 1,32,33
 415 155 415 155 430 151 c 0,34,35
 445 147 445 147 453 146 c 1,36,-1
 431 56 l 1,37,-1
 486 43 l 1,38,-1
 508 134 l 1,39,40
 556 126 556 126 593 126 c 0,41,42
 630 126 630 126 659 147 c 0,43,44
 688 168 688 168 702 208 c 0,45,46
 734 298 734 298 651 341 c 1,47,48
 711 354 711 354 721 421 c 0,49,50
 734 507 734 507 611 547 c 1,51,-1
 634 638 l 1,52,-1
 579 651 l 1,53,-1
 557 563 l 1,54,55
 549 565 549 565 534 568 c 0,56,57
 519 571 519 571 513 574 c 1,58,-1
 535 662 l 1,59,-1
 480 676 l 1,60,-1
 458 586 l 1,61,62
 443 588 443 588 423 594 c 2,63,-1
 347 613 l 1,64,-1
 333 554 l 1,65,-1
 372 545 l 2,66,67
 400 538 400 538 398 513 c 1,68,-1
 372 410 l 2,69,70
 374 410 374 410 378 408 c 1,71,72
 377 409 377 409 375 409 c 0,73,74
 373 409 373 409 372 410 c 2,75,-1
 336 266 l 2,76,77
 331 248 331 248 311 253 c 2,78,-1
 271 263 l 1,79,-1
 244 200 l 1,24,-1
427 223 m 1,80,-1
 457 344 l 2,81,82
 458 344 458 344 476 340 c 0,83,84
 494 336 494 336 504 333 c 0,85,86
 514 330 514 330 532 324 c 0,87,88
 550 318 550 318 561 311 c 0,89,90
 572 304 572 304 582 294 c 0,91,92
 592 284 592 284 596 272 c 0,93,94
 600 260 600 260 596 245 c 0,95,96
 593 234 593 234 587 226 c 0,97,98
 581 218 581 218 572 214 c 0,99,100
 563 210 563 210 553 207 c 0,101,102
 543 204 543 204 530 204 c 0,103,104
 517 204 517 204 507 206 c 0,105,106
 497 208 497 208 483 210 c 0,107,108
 469 212 469 212 461 214 c 0,109,110
 453 216 453 216 442 219 c 0,111,112
 431 222 431 222 427 223 c 1,80,-1
471 399 m 2,113,-1
 498 509 l 2,114,115
 501 508 501 508 510 506 c 0,116,117
 519 504 519 504 527 502 c 0,118,119
 535 500 535 500 545 497 c 0,120,121
 555 494 555 494 564 491 c 0,122,123
 573 488 573 488 582 482 c 0,124,125
 591 476 591 476 597 471 c 0,126,127
 603 466 603 466 608 458 c 0,128,129
 613 450 613 450 614 441 c 0,130,131
 615 432 615 432 613 422 c 0,132,133
 610 409 610 409 602 400 c 0,134,135
 594 391 594 391 583 389 c 0,136,137
 572 387 572 387 561 384 c 0,138,139
 550 381 550 381 534 385 c 0,140,141
 518 389 518 389 510 389 c 0,142,143
 502 389 502 389 487 395 c 0,144,145
 472 401 472 401 471 399 c 2,113,-1
EndSplineSet
Validated: 37
EndChar

StartChar: download
Encoding: 7 59398 7
Width: 928
Flags: W
LayerCount: 2
Fore
SplineSet
714 100 m 0,0,1
 714 115 714 115 704 125 c 0,2,3
 694 135 694 135 679 136 c 0,4,5
 664 137 664 137 654 125 c 0,6,7
 644 113 644 113 643 100 c 0,8,9
 642 87 642 87 654 75 c 0,10,11
 666 63 666 63 679 64 c 0,12,13
 692 65 692 65 704 75 c 0,14,15
 716 85 716 85 714 100 c 0,0,1
857 100 m 0,16,17
 857 115 857 115 847 125 c 0,18,19
 837 135 837 135 821 136 c 0,20,21
 805 137 805 137 796 125 c 0,22,23
 787 113 787 113 786 100 c 0,24,25
 785 87 785 87 796 75 c 0,26,27
 807 63 807 63 821 64 c 0,28,29
 835 65 835 65 847 75 c 0,30,31
 859 85 859 85 857 100 c 0,16,17
929 225 m 2,32,-1
 929 46 l 2,33,34
 929 24 929 24 913 9 c 0,35,36
 897 -6 897 -6 875 -7 c 2,37,-1
 54 -7 l 2,38,39
 31 -7 31 -7 16 9 c 0,40,41
 1 25 1 25 0 46 c 2,42,-1
 0 225 l 2,43,44
 0 247 0 247 16 263 c 0,45,46
 32 279 32 279 54 279 c 2,47,-1
 313 279 l 1,48,-1
 388 203 l 2,49,50
 421 171 421 171 464 171 c 0,51,52
 507 171 507 171 540 203 c 2,53,-1
 616 279 l 1,54,-1
 875 279 l 2,55,56
 897 279 897 279 913 263 c 0,57,58
 929 247 929 247 929 225 c 2,32,-1
747 543 m 0,59,60
 757 520 757 520 739 504 c 2,61,-1
 489 254 l 2,62,63
 479 243 479 243 464 243 c 0,64,65
 449 243 449 243 439 254 c 2,66,-1
 189 504 l 2,67,68
 172 520 172 520 181 543 c 0,69,70
 191 564 191 564 214 564 c 2,71,-1
 357 564 l 1,72,-1
 357 814 l 2,73,74
 357 829 357 829 368 839 c 0,75,76
 379 849 379 849 393 850 c 2,77,-1
 536 850 l 2,78,79
 550 850 550 850 561 839 c 0,80,81
 572 828 572 828 571 814 c 2,82,-1
 571 564 l 1,83,-1
 714 564 l 2,84,85
 738 564 738 564 747 543 c 0,59,60
EndSplineSet
Validated: 33
EndChar

StartChar: keyboard
Encoding: 8 59399 8
Width: 1000
Flags: W
LayerCount: 2
Fore
SplineSet
930 650 m 2,0,1
 958 650 958 650 979 629 c 0,2,3
 1000 608 1000 608 1000 580 c 2,4,-1
 1000 120 l 2,5,6
 1000 90 1000 90 979 70 c 0,7,8
 958 50 958 50 930 50 c 2,9,-1
 70 50 l 2,10,11
 42 50 42 50 21 70 c 0,12,13
 0 90 0 90 0 120 c 2,14,-1
 0 580 l 2,15,16
 0 608 0 608 21 629 c 0,17,18
 42 650 42 650 70 650 c 2,19,-1
 930 650 l 2,0,1
550 550 m 1,20,-1
 550 450 l 1,21,-1
 650 450 l 1,22,-1
 650 550 l 1,23,-1
 550 550 l 1,20,-1
700 400 m 1,24,-1
 600 400 l 1,25,-1
 600 300 l 1,26,-1
 700 300 l 1,27,-1
 700 400 l 1,24,-1
400 550 m 1,28,-1
 400 450 l 1,29,-1
 500 450 l 1,30,-1
 500 550 l 1,31,-1
 400 550 l 1,28,-1
550 400 m 1,32,-1
 450 400 l 1,33,-1
 450 300 l 1,34,-1
 550 300 l 1,35,-1
 550 400 l 1,32,-1
250 550 m 1,36,-1
 250 450 l 1,37,-1
 350 450 l 1,38,-1
 350 550 l 1,39,-1
 250 550 l 1,36,-1
400 400 m 1,40,-1
 300 400 l 1,41,-1
 300 300 l 1,42,-1
 400 300 l 1,43,-1
 400 400 l 1,40,-1
100 550 m 1,44,-1
 100 450 l 1,45,-1
 200 450 l 1,46,-1
 200 550 l 1,47,-1
 100 550 l 1,44,-1
250 400 m 1,48,-1
 150 400 l 1,49,-1
 150 300 l 1,50,-1
 250 300 l 1,51,-1
 250 400 l 1,48,-1
200 150 m 1,52,-1
 200 250 l 1,53,-1
 100 250 l 1,54,-1
 100 150 l 1,55,-1
 200 150 l 1,52,-1
750 150 m 1,56,-1
 750 250 l 1,57,-1
 250 250 l 1,58,-1
 250 150 l 1,59,-1
 750 150 l 1,56,-1
900 150 m 1,60,-1
 900 250 l 1,61,-1
 800 250 l 1,62,-1
 800 150 l 1,63,-1
 900 150 l 1,60,-1
750 300 m 1,64,-1
 850 300 l 1,65,-1
 850 400 l 1,66,-1
 750 400 l 1,67,-1
 750 300 l 1,64,-1
900 450 m 1,68,-1
 900 550 l 1,69,-1
 700 550 l 1,70,-1
 700 450 l 1,71,-1
 900 450 l 1,68,-1
EndSplineSet
Validated: 1
EndChar

StartChar: appstore
Encoding: 9 59400 9
Width: 860
Flags: W
LayerCount: 2
Fore
SplineSet
1 351 m 0,0,1
 0 333 0 333 0 315 c 0,2,3
 0 247 0 247 20 171 c 0,4,5
 46 74 46 74 103 -13 c 0,6,7
 192 -149 192 -149 275 -150 c 0,8,9
 305 -150 305 -150 353 -129 c 0,10,11
 401 -108 401 -108 448 -108 c 2,12,-1
 452 -108 l 2,13,14
 498 -108 498 -108 543 -128 c 0,15,16
 590 -150 590 -150 619 -150 c 0,17,18
 668 -149 668 -149 710 -109 c 0,19,20
 752 -69 752 -69 795 -5 c 0,21,22
 826 43 826 43 860 116 c 1,23,24
 810 135 810 135 775 173 c 0,25,26
 740 211 740 211 727 258 c 0,27,28
 717 293 717 293 718 328 c 2,29,-1
 718 352 l 1,30,31
 722 400 722 400 752 444 c 0,32,33
 782 488 782 488 830 514 c 1,34,35
 792 562 792 562 741 589 c 0,36,37
 690 616 690 616 638 616 c 0,38,39
 590 616 590 616 533 595 c 0,40,41
 476 574 476 574 447 573 c 0,42,43
 417 573 417 573 357 595 c 0,44,45
 297 617 297 617 255 616 c 0,46,47
 197 616 197 616 141 583 c 0,48,49
 85 550 85 550 45 490 c 0,50,51
 8 434 8 434 1 351 c 0,0,1
416 609 m 1,52,53
 413 624 413 624 413 639 c 0,54,55
 413 704 413 704 466 768 c 0,56,57
 493 801 493 801 536 824 c 0,58,59
 579 847 579 847 618 850 c 1,60,61
 620 835 620 835 620 820 c 0,62,63
 620 751 620 751 570 688 c 0,64,65
 542 652 542 652 500 630 c 0,66,67
 459 608 459 608 420 609 c 2,68,-1
 416 609 l 1,52,53
EndSplineSet
Validated: 41
EndChar

StartChar: mobile-1
Encoding: 10 59401 10
Width: 580
Flags: W
LayerCount: 2
Fore
SplineSet
480 840 m 2,0,1
 522 840 522 840 551 811 c 0,2,3
 580 782 580 782 580 740 c 2,4,-1
 580 -40 l 2,5,6
 580 -80 580 -80 551 -110 c 0,7,8
 522 -140 522 -140 480 -140 c 2,9,-1
 100 -140 l 2,10,11
 60 -140 60 -140 30 -110 c 0,12,13
 0 -80 0 -80 0 -40 c 2,14,-1
 0 740 l 2,15,16
 0 782 0 782 30 811 c 0,17,18
 60 840 60 840 100 840 c 2,19,-1
 480 840 l 2,0,1
290 -100 m 0,20,21
 320 -100 320 -100 340 -85 c 0,22,23
 360 -70 360 -70 360 -50 c 0,24,25
 360 -28 360 -28 340 -14 c 0,26,27
 320 0 320 0 290 0 c 0,28,29
 262 0 262 0 241 -15 c 0,30,31
 220 -30 220 -30 220 -50 c 0,32,33
 220 -70 220 -70 241 -85 c 0,34,35
 262 -100 262 -100 290 -100 c 0,20,21
500 50 m 1,36,-1
 500 710 l 1,37,-1
 80 710 l 1,38,-1
 80 50 l 1,39,-1
 500 50 l 1,36,-1
EndSplineSet
Validated: 513
EndChar

StartChar: down-open
Encoding: 11 59403 11
Width: 1000
Flags: W
LayerCount: 2
Fore
SplineSet
939 399 m 2,0,-1
 525 -14 l 2,1,2
 515 -25 515 -25 500 -25 c 0,3,4
 485 -25 485 -25 475 -14 c 2,5,-1
 61 399 l 2,6,7
 50 410 50 410 50 425 c 0,8,9
 50 440 50 440 61 450 c 2,10,-1
 154 542 l 2,11,12
 164 553 164 553 179 553 c 0,13,14
 194 553 194 553 204 542 c 2,15,-1
 500 246 l 1,16,-1
 796 542 l 2,17,18
 807 553 807 553 821 553 c 0,19,20
 835 553 835 553 847 542 c 2,21,-1
 939 450 l 2,22,23
 950 439 950 439 950 425 c 0,24,25
 950 411 950 411 939 399 c 2,0,-1
EndSplineSet
Validated: 513
EndChar

StartChar: up-open
Encoding: 12 59404 12
Width: 1000
Flags: W
LayerCount: 2
Fore
SplineSet
939 107 m 2,0,-1
 847 15 l 2,1,2
 836 5 836 5 821 5 c 0,3,4
 806 5 806 5 796 15 c 2,5,-1
 500 312 l 1,6,-1
 204 15 l 2,7,8
 193 5 193 5 179 5 c 0,9,10
 165 5 165 5 154 15 c 2,11,-1
 61 107 l 2,12,13
 50 118 50 118 50 133 c 0,14,15
 50 148 50 148 61 158 c 2,16,-1
 475 572 l 2,17,18
 486 582 486 582 500 582 c 0,19,20
 514 582 514 582 525 572 c 2,21,-1
 939 158 l 2,22,23
 950 147 950 147 950 133 c 0,24,25
 950 119 950 119 939 107 c 2,0,-1
EndSplineSet
Validated: 513
EndChar

StartChar: indent-right
Encoding: 13 59405 13
Width: 1000
Flags: W
LayerCount: 2
Fore
SplineSet
1000 732 m 1,0,-1
 1000 519 l 1,1,-1
 331 519 l 1,2,-1
 331 732 l 1,3,-1
 1000 732 l 1,0,-1
1000 398 m 1,4,-1
 1000 185 l 1,5,-1
 331 185 l 1,6,-1
 331 398 l 1,7,-1
 1000 398 l 1,4,-1
1000 63 m 1,8,-1
 1000 -150 l 1,9,-1
 331 -150 l 1,10,-1
 331 63 l 1,11,-1
 1000 63 l 1,8,-1
89 398 m 1,12,-1
 239 291 l 1,13,-1
 89 185 l 1,14,-1
 89 398 l 1,12,-1
EndSplineSet
Validated: 513
EndChar

StartChar: angle-up
Encoding: 14 61702 14
Width: 642
Flags: W
LayerCount: 2
Fore
SplineSet
600 189 m 0,0,1
 600 182 600 182 594 177 c 2,2,-1
 566 149 l 2,3,4
 561 143 561 143 554 143 c 0,5,6
 547 143 547 143 541 149 c 2,7,-1
 321 368 l 1,8,-1
 102 149 l 2,9,10
 97 143 97 143 89 143 c 0,11,12
 81 143 81 143 77 149 c 2,13,-1
 49 177 l 2,14,15
 43 182 43 182 43 189 c 0,16,17
 43 196 43 196 49 202 c 2,18,-1
 309 462 l 2,19,20
 314 468 314 468 321 468 c 0,21,22
 328 468 328 468 334 462 c 2,23,-1
 594 202 l 2,24,25
 600 197 600 197 600 189 c 0,0,1
EndSplineSet
Validated: 513
EndChar

StartChar: angle-down
Encoding: 15 61703 15
Width: 642
Flags: W
LayerCount: 2
Fore
SplineSet
600 439 m 0,0,1
 600 432 600 432 594 427 c 2,2,-1
 334 166 l 2,3,4
 329 161 329 161 321 161 c 0,5,6
 313 161 313 161 309 166 c 2,7,-1
 49 427 l 2,8,9
 43 432 43 432 43 439 c 0,10,11
 43 446 43 446 49 452 c 2,12,-1
 77 480 l 2,13,14
 82 486 82 486 89 486 c 0,15,16
 96 486 96 486 102 480 c 2,17,-1
 321 261 l 1,18,-1
 541 480 l 2,19,20
 546 486 546 486 554 486 c 0,21,22
 562 486 562 486 566 480 c 2,23,-1
 594 452 l 2,24,25
 600 447 600 447 600 439 c 0,0,1
EndSplineSet
Validated: 513
EndChar

StartChar: windows
Encoding: 16 61818 16
Width: 928
Flags: W
LayerCount: 2
Fore
SplineSet
381 289 m 1,0,-1
 381 -75 l 1,1,-1
 0 -22 l 1,2,-1
 0 289 l 1,3,-1
 381 289 l 1,0,-1
381 703 m 1,4,-1
 381 336 l 1,5,-1
 0 336 l 1,6,-1
 0 651 l 1,7,-1
 381 703 l 1,4,-1
929 289 m 1,8,-1
 929 -150 l 1,9,-1
 422 -80 l 1,10,-1
 422 289 l 1,11,-1
 929 289 l 1,8,-1
929 779 m 1,12,-1
 929 336 l 1,13,-1
 422 336 l 1,14,-1
 422 709 l 1,15,-1
 929 779 l 1,12,-1
EndSplineSet
Validated: 1
EndChar

StartChar: linux
Encoding: 17 61820 17
Width: 857
Flags: W
LayerCount: 2
Fore
SplineSet
370 621 m 2,0,1
 364 620 364 620 361 615 c 0,2,3
 358 610 358 610 357 610 c 0,4,5
 354 609 354 609 354 612 c 0,6,7
 354 619 354 619 364 621 c 2,8,-1
 370 621 l 2,0,1
419 613 m 0,9,10
 416 612 416 612 412 617 c 0,11,12
 408 622 408 622 402 619 c 1,13,14
 416 625 416 625 420 618 c 0,15,16
 422 615 422 615 419 613 c 0,9,10
223 375 m 2,17,18
 220 375 220 375 219 373 c 0,19,20
 218 371 218 371 217 366 c 0,21,22
 216 361 216 361 214 358 c 0,23,24
 212 355 212 355 208 351 c 0,25,26
 203 345 203 345 208 344 c 0,27,28
 210 344 210 344 215 348 c 0,29,30
 220 352 220 352 222 358 c 0,31,32
 222 360 222 360 223 362 c 0,33,34
 224 364 224 364 224 366 c 0,35,36
 224 368 224 368 225 368 c 0,37,38
 226 368 226 368 225 370 c 2,39,-1
 225 372 l 1,40,-1
 224 373 l 1,41,-1
 223 375 l 2,17,18
700 174 m 1,42,43
 700 184 700 184 669 198 c 1,44,45
 671 206 671 206 673 213 c 0,46,47
 675 220 675 220 676 228 c 0,48,49
 677 236 677 236 678 240 c 0,50,51
 679 244 679 244 678 252 c 0,52,53
 677 260 677 260 678 263 c 0,54,55
 679 266 679 266 676 275 c 0,56,57
 673 284 673 284 673 287 c 0,58,59
 673 290 673 290 671 301 c 0,60,61
 669 312 669 312 667 315 c 0,62,63
 662 342 662 342 641 373 c 0,64,65
 620 404 620 404 601 415 c 1,66,67
 614 404 614 404 633 368 c 0,68,69
 681 278 681 278 663 213 c 0,70,71
 657 191 657 191 635 190 c 0,72,73
 618 188 618 188 614 200 c 0,74,75
 610 212 610 212 609 247 c 0,76,77
 608 282 608 282 603 307 c 0,78,79
 598 328 598 328 592 345 c 0,80,81
 586 362 586 362 581 370 c 0,82,83
 576 378 576 378 572 384 c 0,84,85
 568 390 568 390 565 392 c 0,86,87
 562 394 562 394 561 396 c 0,88,89
 553 431 553 431 544 454 c 0,90,91
 535 477 535 477 527 485 c 0,92,93
 519 493 519 493 514 504 c 0,94,95
 509 515 509 515 506 526 c 0,96,97
 503 538 503 538 509 556 c 0,98,99
 515 574 515 574 511 583 c 0,100,101
 507 592 507 592 487 597 c 0,102,103
 478 599 478 599 462 607 c 0,104,105
 446 615 446 615 442 616 c 0,106,107
 438 617 438 617 436 631 c 0,108,109
 434 645 434 645 440 659 c 0,110,111
 446 673 446 673 460 674 c 0,112,113
 481 676 481 676 489 658 c 0,114,115
 497 640 497 640 491 625 c 0,116,117
 485 615 485 615 490 610 c 0,118,119
 495 605 495 605 507 610 c 0,120,121
 514 612 514 612 514 630 c 2,122,-1
 514 651 l 2,123,124
 511 668 511 668 506 679 c 0,125,126
 501 690 501 690 495 696 c 0,127,128
 489 702 489 702 482 704 c 0,129,130
 475 706 475 706 467 708 c 0,131,132
 407 704 407 704 417 634 c 0,133,134
 417 625 417 625 416 625 c 0,135,136
 411 630 411 630 400 631 c 0,137,138
 389 632 389 632 381 631 c 0,139,140
 373 630 373 630 373 634 c 0,141,142
 373 665 373 665 364 684 c 0,143,144
 355 703 355 703 339 703 c 0,145,146
 324 703 324 703 316 687 c 0,147,148
 308 671 308 671 306 654 c 0,149,150
 306 646 306 646 308 634 c 0,151,152
 310 622 310 622 316 613 c 0,153,154
 322 604 322 604 324 605 c 0,155,156
 330 607 330 607 333 613 c 0,157,158
 335 618 335 618 329 617 c 0,159,160
 325 617 325 617 321 625 c 0,161,162
 317 633 317 633 315 644 c 0,163,164
 315 656 315 656 320 665 c 0,165,166
 325 674 325 674 339 673 c 0,167,168
 349 673 349 673 354 661 c 0,169,170
 359 649 359 649 360 639 c 0,171,172
 361 629 361 629 359 627 c 0,173,174
 347 618 347 618 342 611 c 0,175,176
 337 604 337 604 326 598 c 0,177,178
 315 592 315 592 315 591 c 0,179,180
 308 583 308 583 306 575 c 0,181,182
 304 567 304 567 310 565 c 0,183,184
 318 561 318 561 324 555 c 0,185,186
 330 549 330 549 333 544 c 0,187,188
 336 539 336 539 344 537 c 0,189,190
 352 535 352 535 363 533 c 0,191,192
 390 532 390 532 420 541 c 0,193,194
 421 542 421 542 433 545 c 0,195,196
 445 548 445 548 452 551 c 0,197,198
 459 554 459 554 469 558 c 0,199,200
 479 562 479 562 481 568 c 0,201,202
 486 576 486 576 492 573 c 0,203,204
 494 571 494 571 495 568 c 0,205,206
 496 565 496 565 494 561 c 0,207,208
 492 557 492 557 484 556 c 0,209,210
 473 553 473 553 453 544 c 0,211,212
 433 535 433 535 428 533 c 0,213,214
 403 522 403 522 388 520 c 0,215,216
 374 517 374 517 344 521 c 0,217,218
 339 522 339 522 339 520 c 0,219,220
 339 518 339 518 349 510 c 0,221,222
 363 497 363 497 386 497 c 0,223,224
 396 498 396 498 406 501 c 0,225,226
 416 504 416 504 426 509 c 0,227,228
 436 514 436 514 445 519 c 0,229,230
 454 524 454 524 462 528 c 0,231,232
 470 532 470 532 475 535 c 0,233,234
 480 538 480 538 485 536 c 0,235,236
 490 534 490 534 490 530 c 0,237,238
 490 529 490 529 489 528 c 0,239,240
 488 527 488 527 487 525 c 0,241,242
 486 523 486 523 484 522 c 0,243,244
 482 521 482 521 479 520 c 0,245,246
 476 519 476 519 474 517 c 0,247,248
 472 515 472 515 469 514 c 0,249,250
 466 513 466 513 463 512 c 0,251,252
 448 504 448 504 426 487 c 0,253,254
 404 470 404 470 388 463 c 0,255,256
 372 456 372 456 361 463 c 0,257,258
 349 469 349 469 326 504 c 0,259,260
 314 521 314 521 312 516 c 0,261,262
 311 514 311 514 311 510 c 0,263,264
 311 496 311 496 303 479 c 0,265,266
 295 462 295 462 287 448 c 0,267,268
 279 434 279 434 275 415 c 0,269,270
 271 396 271 396 281 380 c 1,271,272
 268 377 268 377 246 330 c 0,273,274
 224 283 224 283 220 251 c 0,275,276
 219 241 219 241 219 213 c 0,277,278
 219 185 219 185 216 180 c 0,279,280
 212 166 212 166 200 178 c 0,281,282
 182 195 182 195 180 231 c 0,283,284
 179 246 179 246 182 262 c 0,285,286
 184 272 184 272 181 272 c 0,287,288
 180 271 180 271 179 269 c 0,289,290
 159 233 159 233 185 177 c 0,291,292
 188 170 188 170 199 161 c 0,293,294
 210 152 210 152 212 150 c 0,295,296
 223 137 223 137 270 99 c 0,297,298
 317 61 317 61 322 57 c 0,299,300
 331 48 331 48 332 35 c 0,301,302
 333 22 333 22 324 11 c 0,303,304
 315 0 315 0 299 -2 c 1,305,306
 303 -10 303 -10 315 -26 c 0,307,308
 327 -42 327 -42 330 -57 c 0,309,310
 333 -72 333 -72 334 -96 c 1,311,312
 360 -83 360 -83 338 -45 c 0,313,314
 336 -40 336 -40 332 -36 c 0,315,316
 328 -32 328 -32 327 -29 c 2,317,-1
 326 -26 l 2,318,319
 328 -23 328 -23 333 -20 c 0,320,321
 338 -17 338 -17 344 -22 c 0,322,323
 370 -51 370 -51 437 -42 c 0,324,325
 511 -33 511 -33 536 7 c 0,326,327
 549 28 549 28 555 24 c 0,328,329
 561 20 561 20 560 -6 c 0,330,331
 560 -19 560 -19 547 -57 c 0,332,333
 542 -70 542 -70 544 -78 c 0,334,335
 546 -86 546 -86 558 -86 c 1,336,337
 559 -76 559 -76 566 -43 c 0,338,339
 573 -10 573 -10 573 7 c 0,340,341
 574 19 574 19 570 48 c 0,342,343
 566 77 566 77 565 102 c 0,344,345
 564 127 564 127 578 141 c 0,346,347
 587 151 587 151 607 151 c 1,348,349
 607 172 607 172 626 181 c 0,350,351
 645 190 645 190 666 187 c 0,352,353
 687 184 687 184 700 174 c 1,42,43
349 636 m 0,354,355
 351 645 351 645 348 653 c 0,356,357
 345 661 345 661 342 661 c 0,358,359
 337 662 337 662 337 657 c 0,360,361
 338 654 338 654 339 654 c 0,362,363
 345 654 345 654 343 645 c 0,364,365
 342 634 342 634 348 634 c 0,366,367
 349 634 349 634 349 636 c 0,354,355
583 526 m 0,368,369
 582 530 582 530 580 532 c 0,370,371
 578 534 578 534 572 535 c 0,372,373
 566 536 566 536 564 538 c 0,374,375
 561 540 561 540 559 543 c 0,376,377
 557 546 557 546 555 547 c 0,378,379
 553 548 553 548 552 551 c 0,380,381
 551 554 551 554 550 553 c 0,382,383
 549 552 549 552 547 552 c 0,384,385
 540 543 540 543 551 528 c 0,386,387
 562 513 562 513 573 510 c 0,388,389
 578 510 578 510 581 515 c 0,390,391
 584 520 584 520 583 526 c 0,368,369
484 645 m 0,392,393
 484 651 484 651 481 656 c 0,394,395
 478 661 478 661 475 663 c 0,396,397
 472 665 472 665 470 664 c 0,398,399
 467 664 467 664 465 663 c 0,400,401
 463 662 463 662 465 661 c 0,402,403
 467 660 467 660 468 659 c 0,404,405
 476 657 476 657 478 642 c 0,406,407
 478 640 478 640 483 643 c 0,408,409
 484 644 484 644 484 645 c 0,392,393
514 775 m 0,410,411
 514 776 514 776 513 778 c 0,412,413
 512 780 512 780 508 781 c 0,414,415
 504 782 504 782 502 785 c 0,416,417
 494 793 494 793 489 793 c 0,418,419
 484 793 484 793 482 789 c 0,420,421
 480 785 480 785 482 782 c 0,422,423
 484 779 484 779 482 775 c 0,424,425
 481 772 481 772 478 769 c 0,426,427
 475 766 475 766 475 764 c 0,428,429
 475 762 475 762 477 759 c 0,430,431
 479 757 479 757 481 759 c 0,432,433
 483 761 483 761 487 764 c 0,434,435
 491 767 491 767 496 769 c 0,436,437
 496 770 496 770 501 770 c 0,438,439
 506 770 506 770 509 771 c 0,440,441
 512 772 512 772 514 775 c 0,410,411
829 26 m 0,442,443
 840 20 840 20 847 13 c 0,444,445
 854 6 854 6 853 -1 c 0,446,447
 852 -8 852 -8 852 -13 c 0,448,449
 852 -18 852 -18 843 -26 c 0,450,451
 834 -34 834 -34 830 -36 c 0,452,453
 826 -38 826 -38 813 -47 c 0,454,455
 800 -56 800 -56 796 -56 c 0,456,457
 792 -56 792 -56 778 -65 c 0,458,459
 764 -74 764 -74 763 -72 c 1,460,461
 742 -83 742 -83 715 -103 c 0,462,463
 688 -123 688 -123 673 -139 c 0,464,465
 664 -148 664 -148 635 -150 c 0,466,467
 606 -152 606 -152 585 -142 c 0,468,469
 575 -137 575 -137 569 -129 c 0,470,471
 563 -121 563 -121 560 -114 c 0,472,473
 557 -107 557 -107 547 -103 c 0,474,475
 537 -99 537 -99 521 -98 c 0,476,477
 497 -98 497 -98 449 -98 c 0,478,479
 438 -98 438 -98 417 -98 c 0,480,481
 396 -98 396 -98 385 -100 c 0,482,483
 360 -100 360 -100 340 -108 c 0,484,485
 320 -116 320 -116 310 -125 c 0,486,487
 300 -134 300 -134 286 -141 c 0,488,489
 272 -148 272 -148 256 -147 c 0,490,491
 240 -147 240 -147 194 -130 c 0,492,493
 148 -113 148 -113 113 -106 c 0,494,495
 102 -104 102 -104 84 -101 c 0,496,497
 66 -98 66 -98 56 -96 c 0,498,499
 46 -94 46 -94 34 -90 c 0,500,501
 22 -86 22 -86 16 -82 c 0,502,503
 10 -78 10 -78 6 -71 c 0,504,505
 1 -59 1 -59 10 -34 c 0,506,507
 19 -9 19 -9 20 -4 c 0,508,509
 21 5 21 5 18 19 c 0,510,511
 15 33 15 33 12 42 c 0,512,513
 9 51 9 51 10 63 c 0,514,515
 11 75 11 75 16 78 c 0,516,517
 23 84 23 84 47 86 c 0,518,519
 71 88 71 88 81 92 c 0,520,521
 98 102 98 102 104 112 c 0,522,523
 110 122 110 122 111 140 c 1,524,525
 123 99 123 99 93 81 c 0,526,527
 75 70 75 70 47 73 c 0,528,529
 28 74 28 74 23 67 c 0,530,531
 16 59 16 59 26 35 c 0,532,533
 27 32 27 32 30 25 c 0,534,535
 33 18 33 18 35 15 c 0,536,537
 37 12 37 12 37 6 c 0,538,539
 37 0 37 0 38 -7 c 0,540,541
 38 -15 38 -15 29 -34 c 0,542,543
 20 -53 20 -53 21 -61 c 0,544,545
 22 -70 22 -70 41 -75 c 0,546,547
 53 -79 53 -79 88 -86 c 0,548,549
 123 -93 123 -93 144 -97 c 0,550,551
 157 -100 157 -100 185 -109 c 0,552,553
 213 -118 213 -118 231 -122 c 0,554,555
 249 -126 249 -126 262 -124 c 0,556,557
 286 -121 286 -121 298 -109 c 0,558,559
 310 -97 310 -97 311 -82 c 0,560,561
 312 -67 312 -67 307 -49 c 0,562,563
 302 -31 302 -31 296 -20 c 0,564,565
 290 -9 290 -9 285 0 c 0,566,567
 218 106 218 106 191 135 c 0,568,569
 153 177 153 177 128 158 c 0,570,571
 122 153 122 153 119 166 c 0,572,573
 118 175 118 175 118 187 c 0,574,575
 119 203 119 203 124 216 c 0,576,577
 129 229 129 229 137 242 c 0,578,579
 145 255 145 255 150 266 c 0,580,581
 154 278 154 278 164 306 c 0,582,583
 174 334 174 334 181 349 c 0,584,585
 188 364 188 364 198 384 c 0,586,587
 208 404 208 404 219 414 c 0,588,589
 281 493 281 493 289 522 c 1,590,591
 282 585 282 585 280 695 c 0,592,593
 279 746 279 746 293 780 c 0,594,595
 307 814 307 814 352 838 c 0,596,597
 374 850 374 850 410 850 c 0,598,599
 440 851 440 851 469 843 c 0,600,601
 498 835 498 835 519 819 c 0,602,603
 551 796 551 796 570 752 c 0,604,605
 589 708 589 708 587 669 c 0,606,607
 584 616 584 616 603 550 c 0,608,609
 622 487 622 487 678 428 c 0,610,611
 708 395 708 395 733 337 c 0,612,613
 758 279 758 279 766 231 c 0,614,615
 771 203 771 203 769 183 c 0,616,617
 767 163 767 163 762 153 c 0,618,619
 757 143 757 143 751 140 c 0,620,621
 746 139 746 139 738 130 c 0,622,623
 730 121 730 121 723 110 c 0,624,625
 716 99 716 99 700 91 c 0,626,627
 684 83 684 83 666 83 c 0,628,629
 656 84 656 84 649 86 c 0,630,631
 642 88 642 88 636 94 c 0,632,633
 630 100 630 100 629 102 c 0,634,635
 628 104 628 104 622 114 c 0,636,637
 616 124 616 124 617 125 c 0,638,639
 605 145 605 145 594 141 c 0,640,641
 583 137 583 137 579 114 c 0,642,643
 575 91 575 91 583 60 c 0,644,645
 594 21 594 21 583 -49 c 0,646,647
 578 -85 578 -85 593 -105 c 0,648,649
 608 -125 608 -125 634 -124 c 0,650,651
 660 -123 660 -123 681 -104 c 0,652,653
 714 -76 714 -76 731 -67 c 0,654,655
 748 -58 748 -58 789 -43 c 0,656,657
 819 -33 819 -33 832 -23 c 0,658,659
 845 -13 845 -13 842 -3 c 0,660,661
 839 7 839 7 828 13 c 0,662,663
 817 19 817 19 800 26 c 0,664,665
 781 32 781 32 772 53 c 0,666,667
 763 74 763 74 764 93 c 0,668,669
 765 112 765 112 772 120 c 1,670,671
 773 102 773 102 777 88 c 0,672,673
 781 74 781 74 785 65 c 0,674,675
 789 56 789 56 796 50 c 0,676,677
 803 44 803 44 808 39 c 0,678,679
 813 34 813 34 820 32 c 0,680,681
 827 30 827 30 829 26 c 0,442,443
EndSplineSet
Validated: 37
EndChar

StartChar: sliders
Encoding: 18 61918 18
Width: 857
Flags: W
LayerCount: 2
Fore
SplineSet
196 64 m 1,0,-1
 196 -7 l 1,1,-1
 0 -7 l 1,2,-1
 0 64 l 1,3,-1
 196 64 l 1,0,-1
393 136 m 2,4,5
 407 136 407 136 418 125 c 0,6,7
 429 114 429 114 429 100 c 2,8,-1
 429 -43 l 2,9,10
 429 -57 429 -57 418 -68 c 0,11,12
 407 -79 407 -79 393 -79 c 2,13,-1
 250 -79 l 2,14,15
 236 -79 236 -79 225 -68 c 0,16,17
 214 -57 214 -57 214 -43 c 2,18,-1
 214 100 l 2,19,20
 214 115 214 115 225 125 c 0,21,22
 236 135 236 135 250 136 c 2,23,-1
 393 136 l 2,4,5
482 350 m 1,24,-1
 482 279 l 1,25,-1
 0 279 l 1,26,-1
 0 350 l 1,27,-1
 482 350 l 1,24,-1
125 636 m 1,28,-1
 125 564 l 1,29,-1
 0 564 l 1,30,-1
 0 636 l 1,31,-1
 125 636 l 1,28,-1
857 64 m 1,32,-1
 857 -7 l 1,33,-1
 446 -7 l 1,34,-1
 446 64 l 1,35,-1
 857 64 l 1,32,-1
321 707 m 2,36,37
 336 707 336 707 347 697 c 0,38,39
 358 687 358 687 357 671 c 2,40,-1
 357 529 l 2,41,42
 357 514 357 514 347 504 c 0,43,44
 337 494 337 494 321 493 c 2,45,-1
 179 493 l 2,46,47
 164 493 164 493 154 504 c 0,48,49
 144 515 144 515 143 529 c 2,50,-1
 143 671 l 2,51,52
 143 686 143 686 154 697 c 0,53,54
 165 708 165 708 179 707 c 2,55,-1
 321 707 l 2,36,37
679 421 m 2,56,57
 693 421 693 421 704 411 c 0,58,59
 715 401 715 401 714 386 c 2,60,-1
 714 243 l 2,61,62
 714 228 714 228 704 218 c 0,63,64
 694 208 694 208 679 207 c 2,65,-1
 536 207 l 2,66,67
 521 207 521 207 511 218 c 0,68,69
 501 229 501 229 500 243 c 2,70,-1
 500 386 l 2,71,72
 500 400 500 400 511 411 c 0,73,74
 522 422 522 422 536 421 c 2,75,-1
 679 421 l 2,56,57
857 350 m 1,76,-1
 857 279 l 1,77,-1
 732 279 l 1,78,-1
 732 350 l 1,79,-1
 857 350 l 1,76,-1
857 636 m 1,80,-1
 857 564 l 1,81,-1
 375 564 l 1,82,-1
 375 636 l 1,83,-1
 857 636 l 1,80,-1
EndSplineSet
Validated: 1
EndChar

StartChar: cc-paypal
Encoding: 19 61940 19
Width: 1285
Flags: W
LayerCount: 2
Fore
SplineSet
416 344 m 0,0,1
 416 324 416 324 402 310 c 0,2,3
 388 296 388 296 367 296 c 0,4,5
 350 296 350 296 341 305 c 0,6,7
 332 314 332 314 331 330 c 0,8,9
 331 351 331 351 345 365 c 0,10,11
 359 379 359 379 380 379 c 0,12,13
 395 379 395 379 405 370 c 0,14,15
 415 361 415 361 416 344 c 0,0,1
854 428 m 0,16,17
 854 404 854 404 842 396 c 0,18,19
 830 388 830 388 805 387 c 2,20,-1
 787 387 l 1,21,-1
 796 447 l 2,22,23
 797 453 797 453 804 453 c 2,24,-1
 814 453 l 2,25,26
 826 453 826 453 833 452 c 0,27,28
 840 451 840 451 847 445 c 0,29,30
 854 439 854 439 854 428 c 0,16,17
1050 344 m 0,31,32
 1050 324 1050 324 1035 310 c 0,33,34
 1020 296 1020 296 1001 296 c 0,35,36
 985 296 985 296 975 305 c 0,37,38
 965 314 965 314 965 330 c 0,39,40
 965 351 965 351 979 365 c 0,41,42
 993 379 993 379 1013 379 c 0,43,44
 1029 379 1029 379 1039 370 c 0,45,46
 1049 361 1049 361 1050 344 c 0,31,32
286 440 m 0,47,48
 286 473 286 473 265 488 c 0,49,50
 244 503 244 503 209 502 c 2,51,-1
 119 502 l 2,52,53
 109 502 109 502 108 492 c 2,54,-1
 71 264 l 2,55,56
 71 261 71 261 73 258 c 0,57,58
 75 255 75 255 79 255 c 2,59,-1
 121 255 l 2,60,61
 132 255 132 255 133 266 c 2,62,-1
 143 327 l 2,63,64
 144 332 144 332 147 334 c 0,65,66
 150 336 150 336 156 338 c 0,67,68
 162 340 162 340 165 339 c 0,69,70
 168 338 168 338 176 338 c 2,71,-1
 184 338 l 2,72,73
 232 338 232 338 259 365 c 0,74,75
 286 392 286 392 286 440 c 0,47,48
459 266 m 2,76,-1
 482 411 l 2,77,78
 482 415 482 415 480 418 c 0,79,80
 478 421 478 421 474 420 c 2,81,-1
 432 420 l 2,82,83
 424 420 424 420 422 402 c 1,84,85
 407 424 407 424 369 424 c 0,86,87
 329 424 329 424 301 394 c 0,88,89
 273 364 273 364 273 323 c 0,90,91
 273 290 273 290 292 271 c 0,92,93
 311 252 311 252 344 251 c 0,94,95
 359 251 359 251 376 258 c 0,96,97
 393 265 393 265 403 276 c 1,98,99
 401 269 401 269 401 264 c 0,100,101
 401 255 401 255 408 255 c 2,102,-1
 446 255 l 2,103,104
 457 255 457 255 459 266 c 2,76,-1
708 413 m 0,105,106
 708 415 708 415 706 418 c 0,107,108
 704 421 704 421 701 420 c 2,109,-1
 658 420 l 2,110,111
 652 420 652 420 648 415 c 2,112,-1
 589 328 l 1,113,-1
 564 411 l 2,114,115
 561 420 561 420 552 420 c 2,116,-1
 510 420 l 2,117,118
 507 420 507 420 505 418 c 0,119,120
 503 416 503 416 503 413 c 0,121,122
 503 411 503 411 514 380 c 0,123,124
 525 349 525 349 537 311 c 0,125,126
 549 273 549 273 550 272 c 0,127,128
 505 209 505 209 505 205 c 0,129,130
 505 198 505 198 512 198 c 2,131,-1
 555 198 l 2,132,133
 561 198 561 198 565 203 c 2,134,-1
 707 409 l 2,135,136
 708 410 708 410 708 413 c 0,105,106
920 440 m 0,137,138
 920 473 920 473 899 488 c 0,139,140
 878 503 878 503 843 502 c 2,141,-1
 754 502 l 2,142,143
 743 502 743 502 742 492 c 2,144,-1
 705 264 l 2,145,146
 705 261 705 261 707 258 c 0,147,148
 709 255 709 255 713 255 c 2,149,-1
 758 255 l 2,150,151
 765 255 765 255 767 262 c 2,152,-1
 777 327 l 2,153,154
 778 332 778 332 781 334 c 0,155,156
 784 336 784 336 790 338 c 0,157,158
 796 340 796 340 799 339 c 0,159,160
 802 338 802 338 810 338 c 2,161,-1
 818 338 l 2,162,163
 866 338 866 338 893 365 c 0,164,165
 920 392 920 392 920 440 c 0,137,138
1093 266 m 2,166,-1
 1116 411 l 2,167,168
 1116 415 1116 415 1114 418 c 0,169,170
 1112 421 1112 421 1108 420 c 2,171,-1
 1066 420 l 2,172,173
 1058 420 1058 420 1056 402 c 1,174,175
 1042 424 1042 424 1003 424 c 0,176,177
 963 424 963 424 935 394 c 0,178,179
 907 364 907 364 907 323 c 0,180,181
 907 290 907 290 926 271 c 0,182,183
 945 252 945 252 978 251 c 0,184,185
 994 251 994 251 1011 258 c 0,186,187
 1028 265 1028 265 1037 276 c 1,188,189
 1037 275 1037 275 1036 271 c 0,190,191
 1035 267 1035 267 1035 264 c 0,192,193
 1035 255 1035 255 1042 255 c 2,194,-1
 1080 255 l 2,195,196
 1091 255 1091 255 1093 266 c 2,166,-1
1214 494 m 1,197,-1
 1214 495 l 2,198,199
 1214 502 1214 502 1207 502 c 2,200,-1
 1166 502 l 2,201,202
 1160 502 1160 502 1159 496 c 2,203,-1
 1122 264 l 1,204,-1
 1122 263 l 2,205,206
 1122 260 1122 260 1124 258 c 0,207,208
 1126 256 1126 256 1130 255 c 2,209,-1
 1166 255 l 2,210,211
 1177 255 1177 255 1178 266 c 2,212,-1
 1214 494 l 1,197,-1
219 419 m 0,213,214
 216 400 216 400 204 394 c 0,215,216
 192 388 192 388 171 387 c 2,217,-1
 152 387 l 1,218,-1
 162 447 l 2,219,220
 163 453 163 453 169 453 c 2,221,-1
 180 453 l 2,222,223
 202 453 202 453 212 446 c 0,224,225
 222 439 222 439 219 419 c 0,213,214
1286 707 m 2,226,-1
 1286 -7 l 2,227,228
 1286 -36 1286 -36 1265 -57 c 0,229,230
 1244 -78 1244 -78 1214 -79 c 2,231,-1
 71 -79 l 2,232,233
 42 -79 42 -79 21 -57 c 0,234,235
 0 -35 0 -35 0 -7 c 2,236,-1
 0 707 l 2,237,238
 0 736 0 736 21 757 c 0,239,240
 42 778 42 778 71 779 c 2,241,-1
 1214 779 l 2,242,243
 1243 779 1243 779 1265 757 c 0,244,245
 1287 735 1287 735 1286 707 c 2,226,-1
EndSplineSet
Validated: 545
EndChar

StartChar: mouse-pointer
Encoding: 20 62021 20
Width: 714
Flags: W
LayerCount: 2
Fore
SplineSet
632 268 m 2,0,1
 650 251 650 251 640 230 c 0,2,3
 631 207 631 207 607 207 c 2,4,-1
 394 207 l 1,5,-1
 506 -59 l 2,6,7
 512 -72 512 -72 506 -86 c 0,8,9
 500 -100 500 -100 487 -105 c 2,10,-1
 388 -147 l 2,11,12
 374 -153 374 -153 361 -147 c 0,13,14
 348 -141 348 -141 342 -128 c 2,15,-1
 235 124 l 1,16,-1
 61 -50 l 2,17,18
 50 -61 50 -61 36 -61 c 0,19,20
 29 -61 29 -61 22 -58 c 0,21,22
 0 -48 0 -48 0 -25 c 2,23,-1
 0 814 l 2,24,25
 0 838 0 838 22 847 c 0,26,27
 29 850 29 850 36 850 c 0,28,29
 51 850 51 850 61 839 c 2,30,-1
 632 268 l 2,0,1
EndSplineSet
Validated: 545
EndChar

